Coordinates
version=1
nRows=8
nColumns=40
inDegrees=yes

Units are S.I. units (second, meters, Newtons, ...)
Angles are in degrees.

endheader
time	pelvis_tilt	pelvis_list	pelvis_rotation	pelvis_tx	pelvis_ty	pelvis_tz	hip_flexion_r	hip_adduction_r	hip_rotation_r	knee_angle_r	knee_angle_r_beta	ankle_angle_r	subtalar_angle_r	mtp_angle_r	hip_flexion_l	hip_adduction_l	hip_rotation_l	knee_angle_l	knee_angle_l_beta	ankle_angle_l	subtalar_angle_l	mtp_angle_l	lumbar_extension	lumbar_bending	lumbar_rotation	arm_flex_r	arm_add_r	arm_rot_r	elbow_flex_r	pro_sup_r	wrist_flex_r	wrist_dev_r	arm_flex_l	arm_add_l	arm_rot_l	elbow_flex_l	pro_sup_l	wrist_flex_l	wrist_dev_l
     32.32250000	     -7.61414318	     -6.44745821	      2.49243378	      1.04907947	      0.91632864	      0.45061466	     -1.02010912	      0.44766741	    -16.67088526	     18.26556131	     18.26556131	     15.77118315	      4.84749553	     -6.13189139	     31.78477443	     -8.54017091	      0.98124649	     28.99496922	     28.99496922	      8.78061020	    -13.78792643	      8.45904682	     -9.01206666	      6.77829960	      6.45465745	     47.41501850	    -12.99664925	      0.94929335	    128.36969933	     43.72703559	      0.00000000	      0.00000000	    -17.64269419	     -9.82560854	     15.68790873	     31.92304112	     43.75675489	      0.00000000	      0.00000000
     32.33400000	     -7.78851845	     -6.38194337	      2.36477925	      1.04929714	      0.91760648	      0.44768544	     -0.06737444	     -0.13188198	    -16.00219958	     20.50914732	     20.50914732	     14.14430974	      2.87983317	     -9.15105711	     31.16059380	     -8.29373954	      0.95415067	     28.72040268	     28.72040268	      9.32818377	    -14.00574605	      8.91381769	     -8.92969300	      6.74838108	      7.08213978	     45.85743387	    -13.88074305	      0.06333427	    130.58837888	     43.71157903	      0.00000000	      0.00000000	    -16.62245307	    -10.09888349	     15.14634775	     33.11089778	     43.92178703	      0.00000000	      0.00000000
     32.34550000	     -7.83687106	     -6.23263206	      2.18223829	      1.04951130	      0.91894161	      0.44485174	      1.11016430	     -0.95988612	    -15.55339914	     23.52581053	     23.52581053	     13.23593604	      1.59644791	    -10.15523930	     30.32881967	     -8.07188787	      0.57663614	     28.35541537	     28.35541537	      9.75590300	    -13.89903006	      8.82931205	     -8.92147743	      6.65093607	      6.84949936	     44.66301241	    -13.73799319	      0.20305795	    130.85015479	     43.69725443	      0.00000000	      0.00000000	    -15.77950732	    -10.22061277	     14.93992542	     33.60067524	     43.97703203	      0.00000000	      0.00000000
     32.35700000	     -8.02298689	     -6.14199080	      2.01852623	      1.04928807	      0.91994018	      0.44223422	      2.74059980	     -1.66831430	    -14.79246597	     26.93554428	     26.93554428	     11.91048642	     -0.48371232	    -11.37776048	     29.68906263	     -7.87565046	      0.32083794	     27.96773252	     27.96773252	     10.07226054	    -13.88366587	      8.74581656	     -8.83385594	      6.58829850	      6.74033636	     43.25372246	    -13.95308105	      0.17200066	    131.28331740	     43.68394502	      0.00000000	      0.00000000	    -14.89699636	    -10.39871238	     14.50866361	     34.45022033	     44.06374777	      0.00000000	      0.00000000
     32.36850000	     -8.11133974	     -6.17653927	      1.86725434	      1.04904218	      0.92089312	      0.43990419	      4.22693533	     -2.00647203	    -13.62415736	     29.91373113	     29.91373113	      8.49553584	     -4.53162363	    -17.05503641	     28.99952563	     -7.83499135	      0.13651222	     27.63585202	     27.63585202	     10.23203394	    -13.91631643	      8.30219012	     -8.87305813	      6.60672601	      6.90843899	     41.40199901	    -14.45899268	     -0.64840782	    132.23578172	     43.71130947	      0.00000000	      0.00000000	    -14.27205796	    -10.52035786	     12.19241098	     36.70945740	     44.51928366	      0.00000000	      0.00000000
     32.38000000	     -8.11679312	     -5.99929827	      1.70057934	      1.04861253	      0.92177047	      0.43751375	      6.07961234	     -2.82361004	    -12.95596997	     33.93854679	     33.93854679	      6.96925645	     -6.48678758	    -17.22879517	     28.22239385	     -7.61992955	     -0.29258317	     27.34482939	     27.34482939	     10.56696546	    -13.73555433	      8.14264576	     -9.00539056	      6.46785596	      6.63399056	     39.79120568	    -14.48780982	     -0.44637696	    131.96012633	     43.70674279	      0.00000000	      0.00000000	    -13.12814719	    -10.73222419	     11.86037491	     37.40852478	     44.58654129	      0.00000000	      0.00000000
     32.39150000	     -8.26499596	     -5.96352634	      1.54374644	      1.04787234	      0.92225523	      0.43539659	      8.27344016	     -3.28327445	    -11.91590596	     38.04310856	     38.04310856	      5.06232412	     -9.31351421	    -17.00428138	     27.66665331	     -7.53849630	     -0.58033657	     27.09293141	     27.09293141	     10.89415280	    -13.55874473	      7.88418137	     -8.96483226	      6.44000336	      6.49746497	     37.89405753	    -14.86901669	     -0.54473308	    131.58326747	     43.71713162	      0.00000000	      0.00000000	    -12.07252619	    -10.99332024	     11.26313368	     38.61056043	     44.68903449	      0.00000000	      0.00000000
     32.40300000	     -8.24460803	     -5.99498232	      1.40302691	      1.04708660	      0.92277676	      0.43347553	     10.35911257	     -3.52688692	    -10.81376446	     42.07877286	     42.07877286	      3.03315905	    -12.23589516	    -16.09520504	     27.03894347	     -7.57486766	     -0.91639972	     27.02061608	     27.02061608	     11.22591833	    -13.30315170	      7.39114827	     -9.17157208	      6.47419715	      6.51637308	     35.75384387	    -15.27864363	     -1.07926350	    131.06187975	     43.75216861	      0.00000000	      0.00000000	    -11.03768825	    -11.31488612	     10.19770872	     40.65489335	     44.86048015	      0.00000000	      0.00000000
